<svg id="visual" viewBox="0 0 540 960" width="540" height="960" xmlns="http://www.w3.org/2000/svg" xmlns:xlink="http://www.w3.org/1999/xlink" version="1.1"><rect x="0" y="0" width="540" height="960" fill="#ECECEC"></rect><defs><linearGradient id="grad1_0" x1="0%" y1="0%" x2="100%" y2="100%"><stop offset="30%" stop-color="#1b95a2" stop-opacity="1"></stop><stop offset="70%" stop-color="#1b95a2" stop-opacity="1"></stop></linearGradient></defs><defs><linearGradient id="grad1_1" x1="0%" y1="0%" x2="100%" y2="100%"><stop offset="30%" stop-color="#1b95a2" stop-opacity="1"></stop><stop offset="70%" stop-color="#63abb4" stop-opacity="1"></stop></linearGradient></defs><defs><linearGradient id="grad1_2" x1="0%" y1="0%" x2="100%" y2="100%"><stop offset="30%" stop-color="#94c0c6" stop-opacity="1"></stop><stop offset="70%" stop-color="#63abb4" stop-opacity="1"></stop></linearGradient></defs><defs><linearGradient id="grad1_3" x1="0%" y1="0%" x2="100%" y2="100%"><stop offset="30%" stop-color="#94c0c6" stop-opacity="1"></stop><stop offset="70%" stop-color="#c0d6d9" stop-opacity="1"></stop></linearGradient></defs><defs><linearGradient id="grad1_4" x1="0%" y1="0%" x2="100%" y2="100%"><stop offset="30%" stop-color="#ececec" stop-opacity="1"></stop><stop offset="70%" stop-color="#c0d6d9" stop-opacity="1"></stop></linearGradient></defs><defs><linearGradient id="grad2_0" x1="0%" y1="0%" x2="100%" y2="100%"><stop offset="30%" stop-color="#1b95a2" stop-opacity="1"></stop><stop offset="70%" stop-color="#1b95a2" stop-opacity="1"></stop></linearGradient></defs><defs><linearGradient id="grad2_1" x1="0%" y1="0%" x2="100%" y2="100%"><stop offset="30%" stop-color="#63abb4" stop-opacity="1"></stop><stop offset="70%" stop-color="#1b95a2" stop-opacity="1"></stop></linearGradient></defs><defs><linearGradient id="grad2_2" x1="0%" y1="0%" x2="100%" y2="100%"><stop offset="30%" stop-color="#63abb4" stop-opacity="1"></stop><stop offset="70%" stop-color="#94c0c6" stop-opacity="1"></stop></linearGradient></defs><defs><linearGradient id="grad2_3" x1="0%" y1="0%" x2="100%" y2="100%"><stop offset="30%" stop-color="#c0d6d9" stop-opacity="1"></stop><stop offset="70%" stop-color="#94c0c6" stop-opacity="1"></stop></linearGradient></defs><defs><linearGradient id="grad2_4" x1="0%" y1="0%" x2="100%" y2="100%"><stop offset="30%" stop-color="#c0d6d9" stop-opacity="1"></stop><stop offset="70%" stop-color="#ececec" stop-opacity="1"></stop></linearGradient></defs><g transform="translate(540, 0)"><path d="M0 378C-46.1 365.6 -92.3 353.2 -139.7 337.2C-187.1 321.3 -235.7 301.8 -267.3 267.3C-298.8 232.8 -313.3 183.3 -328.9 136.2C-344.5 89.2 -361.3 44.6 -378 0L0 0Z" fill="#d6e1e2"></path><path d="M0 302.4C-36.9 292.5 -73.8 282.5 -111.7 269.8C-149.7 257 -188.6 241.4 -213.8 213.8C-239.1 186.2 -250.6 146.6 -263.1 109C-275.6 71.3 -289 35.7 -302.4 0L0 0Z" fill="#aacbd0"></path><path d="M0 226.8C-27.7 219.3 -55.4 211.9 -83.8 202.3C-112.2 192.8 -141.4 181.1 -160.4 160.4C-179.3 139.7 -188 110 -197.3 81.7C-206.7 53.5 -216.8 26.8 -226.8 0L0 0Z" fill="#7cb5bd"></path><path d="M0 151.2C-18.5 146.2 -36.9 141.3 -55.9 134.9C-74.8 128.5 -94.3 120.7 -106.9 106.9C-119.5 93.1 -125.3 73.3 -131.6 54.5C-137.8 35.7 -144.5 17.8 -151.2 0L0 0Z" fill="#46a0ab"></path><path d="M0 75.6C-9.2 73.1 -18.5 70.6 -27.9 67.4C-37.4 64.3 -47.1 60.4 -53.5 53.5C-59.8 46.6 -62.7 36.7 -65.8 27.2C-68.9 17.8 -72.3 8.9 -75.6 0L0 0Z" fill="#1b95a2"></path></g><g transform="translate(0, 960)"><path d="M0 -378C52.6 -376.3 105.3 -374.5 144.7 -349.2C184.1 -323.9 210.2 -275.1 235.5 -235.5C260.7 -195.9 285 -165.5 308.6 -127.8C332.2 -90.1 355.1 -45.1 378 0L0 0Z" fill="#d6e1e2"></path><path d="M0 -302.4C42.1 -301 84.2 -299.6 115.7 -279.4C147.2 -259.1 168.2 -220.1 188.4 -188.4C208.6 -156.7 228 -132.4 246.9 -102.3C265.7 -72.1 284.1 -36 302.4 0L0 0Z" fill="#aacbd0"></path><path d="M0 -226.8C31.6 -225.8 63.2 -224.7 86.8 -209.5C110.4 -194.4 126.1 -165 141.3 -141.3C156.4 -117.5 171 -99.3 185.1 -76.7C199.3 -54.1 213.1 -27 226.8 0L0 0Z" fill="#7cb5bd"></path><path d="M0 -151.2C21.1 -150.5 42.1 -149.8 57.9 -139.7C73.6 -129.6 84.1 -110 94.2 -94.2C104.3 -78.3 114 -66.2 123.4 -51.1C132.9 -36 142 -18 151.2 0L0 0Z" fill="#46a0ab"></path><path d="M0 -75.6C10.5 -75.3 21.1 -74.9 28.9 -69.8C36.8 -64.8 42 -55 47.1 -47.1C52.1 -39.2 57 -33.1 61.7 -25.6C66.4 -18 71 -9 75.6 0L0 0Z" fill="#1b95a2"></path></g></svg>